<svg width="23" height="24" viewBox="0 0 23 24" fill="none" xmlns="http://www.w3.org/2000/svg">
<path fill-rule="evenodd" clip-rule="evenodd" d="M20.0418 4.42011L17.6625 3.10363C17.637 3.08955 17.4535 2.98883 17.1121 2.80149C16.3911 2.40591 15.5155 2.40886 14.7972 2.8093L14.6048 2.91663C14.528 2.95954 14.3237 3.0752 13.9921 3.26361C13.9562 3.28399 13.9263 3.31329 13.9053 3.34864C13.8384 3.4611 13.876 3.60615 13.9891 3.6726C14.3119 3.86214 14.5245 3.98532 14.6269 4.04213C15.3749 4.45707 16.7564 5.22436 18.7713 6.34402C19.6742 6.84574 20.2335 7.79339 20.2335 8.8214V15.1681C20.2335 16.1904 19.6803 17.1338 18.7852 17.6377L13.7436 20.4759C13.6707 20.517 13.5814 20.5169 13.5086 20.4757L12.1011 19.6799C12.0939 19.6758 12.0865 19.6721 12.0789 19.6688C11.2933 19.3266 10.5784 19.3283 9.93429 19.6738C9.1907 20.0728 8.75064 20.9405 8.8065 21.7416C8.84425 22.283 9.07005 22.7485 9.48389 23.1383C9.52491 23.1769 9.76219 23.3269 10.1957 23.5883C11.0871 24.1258 12.2025 24.1378 13.1054 23.6197L20.1097 19.6005C21.6561 18.7132 22.6087 17.0735 22.6087 15.2989V8.75997C22.6087 6.9577 21.6263 5.29682 20.0418 4.42011ZM12.6829 1.28862L12.9196 1.15226C12.9562 1.13117 12.9865 1.10077 13.0073 1.06419C13.0721 0.950518 13.0319 0.806187 12.9175 0.741815C12.7935 0.672009 12.7197 0.631143 12.6962 0.619217L11.9849 0.258503C11.2703 -0.103928 10.4201 -0.0841878 9.72324 0.311013L2.52079 4.39594C0.962127 5.27995 0 6.92651 0 8.70997V15.2877C0 17.0623 0.952737 18.7022 2.4993 19.5894L5.1173 21.0914C5.15348 21.1122 5.19452 21.1231 5.2363 21.1231C5.36775 21.1231 5.47431 21.0172 5.47431 20.8866V19.9191C5.47431 19.0696 5.00934 18.2873 4.26067 17.8772L3.9049 17.6823L3.86117 17.6585C2.94775 17.1598 2.38013 16.2064 2.38013 15.1707V8.82778C2.38013 7.81279 2.92551 6.87505 3.8105 6.36837L12.6829 1.28862ZM8.44948 9.23312C8.44948 8.48199 7.83674 7.87307 7.0809 7.87307C6.32506 7.87307 5.71232 8.48199 5.71232 9.23312V12.1898C5.71232 12.9409 6.32506 13.5498 7.0809 13.5498C7.83674 13.5498 8.44948 12.9409 8.44948 12.1898V9.23312ZM16.4967 8.26754C17.026 8.78426 17.0335 9.62952 16.5136 10.1555L16.4967 10.1723L15.9453 10.7106L16.4967 11.2489C17.026 11.7656 17.0335 12.6108 16.5136 13.1368L16.4967 13.1536C15.9551 13.6823 15.0872 13.6823 14.5457 13.1536L13.0188 11.6629C12.4895 11.1462 12.482 10.3009 13.0019 9.77497C13.0075 9.76933 13.0131 9.76374 13.0188 9.7582L14.5457 8.26754C15.0872 7.73885 15.9551 7.73885 16.4967 8.26754Z" fill="#59687A"/>
</svg>
