<svg width="18" height="19" viewBox="0 0 18 19" fill="none" xmlns="http://www.w3.org/2000/svg">
<path fill-rule="evenodd" clip-rule="evenodd" d="M9.5513 1.09479C7.8358 1.25324 6.4484 2.55912 6.18648 4.26189L6.06975 5.02076C5.81903 6.65066 6.93708 8.17519 8.56697 8.4259C10.4569 8.71661 12.1292 7.18076 12 5.273L11.7036 0.895996L9.5513 1.09479ZM0.705688 13.5C2.446 12.3429 4.44178 11.5395 6.59038 11.1926C7.26057 11.6992 8.09526 11.9996 9.00012 11.9996C9.90496 11.9996 10.7396 11.6992 11.4098 11.1926C13.5582 11.5396 15.5539 12.3428 17.294 13.4998C15.9286 16.7319 12.7291 19.0001 8.99983 19.0001C5.27063 19.0001 2.07117 16.732 0.705688 13.5Z" fill="#717D8B"/>
</svg>
