<svg width="16" height="16" viewBox="0 0 16 16" fill="none" xmlns="http://www.w3.org/2000/svg">
<path fill-rule="evenodd" clip-rule="evenodd" d="M8.5 3.49985V2.5C8.5 1.39543 7.60457 0.5 6.5 0.5C5.39543 0.5 4.5 1.39543 4.5 2.5V3.49985H2.5C1.39543 3.49985 0.5 4.39528 0.5 5.49985L0.5 7.49985H1.5C2.60457 7.49985 3.5 8.39528 3.5 9.49985C3.5 10.6044 2.60457 11.4998 1.5 11.4998H0.5L0.5 13.4998C0.5 14.6044 1.39543 15.4998 2.5 15.4998H4.5V14.4998C4.5 13.3953 5.39543 12.4998 6.5 12.4998C7.60457 12.4998 8.5 13.3953 8.5 14.4998V15.4998H10.5C11.6046 15.4998 12.5 14.6044 12.5 13.4998V11.5H13.5C14.6046 11.5 15.5 10.6046 15.5 9.5C15.5 8.39543 14.6046 7.5 13.5 7.5H12.5V5.49985C12.5 4.39528 11.6046 3.49985 10.5 3.49985L8.5 3.49985Z" fill="#717D8B"/>
</svg>
