<svg width="32" height="32" viewBox="0 0 32 32" fill="none" xmlns="http://www.w3.org/2000/svg">
<circle cx="16" cy="16" r="16" fill="white"/>
<ellipse cx="16" cy="16" rx="11" ry="9" fill="url(#paint0_linear)"/>
<path d="M11.9575 14.9594C11.9575 14.4303 11.5193 14.0014 10.9788 14.0014C10.4382 14.0014 10 14.4303 10 14.9594V17.0419C10 17.5709 10.4382 17.9998 10.9788 17.9998C11.5193 17.9998 11.9575 17.5709 11.9575 17.0419V14.9594Z" fill="white"/>
<path d="M21.7246 15.609C22.0965 15.2386 22.0911 14.6432 21.7125 14.2793C21.3253 13.9069 20.7045 13.9069 20.3173 14.2793L19.2253 15.3292L19.2132 15.341C18.8414 15.7115 18.8468 16.3068 19.2253 16.6708L20.3173 17.7207C20.7045 18.0931 21.3253 18.0931 21.7125 17.7207L21.7246 17.7089C22.0965 17.3384 22.0911 16.7431 21.7125 16.3791L21.3182 16L21.7125 15.6209L21.7246 15.609Z" fill="white"/>
<defs>
<linearGradient id="paint0_linear" x1="5.8038" y1="12.5136" x2="23.7432" y2="12.5136" gradientUnits="userSpaceOnUse">
<stop stop-color="#00A3FF"/>
<stop offset="1" stop-color="#335FFE"/>
</linearGradient>
</defs>
</svg>
