<svg width="257" height="257" viewBox="0 0 257 257" fill="none" xmlns="http://www.w3.org/2000/svg">
<mask id="mask0" mask-type="alpha" maskUnits="userSpaceOnUse" x="0" y="0" width="257" height="256">
<circle cx="128.295" cy="128" r="122" fill="#D8E2E8" stroke="white" stroke-width="12"/>
</mask>
<g mask="url(#mask0)">
<circle cx="128.295" cy="128" r="128" fill="#E8DCD8"/>
<path d="M50 106C50 62.9218 84.9218 28 128 28C171.078 28 206 62.9218 206 106V173C206 177.418 202.418 181 198 181H58C53.5817 181 50 177.418 50 173V106Z" fill="#C0A8A1"/>
<path d="M42.2949 245C42.2949 200.817 78.1121 165 122.295 165H134.295C178.478 165 214.295 200.817 214.295 245V249H42.2949V245Z" fill="#C0A8A1"/>
<path d="M193.295 121C193.295 132.046 186.803 149 178.795 149C170.787 149 164.295 132.046 164.295 121C164.295 109.954 170.787 109 178.795 109C186.803 109 193.295 109.954 193.295 121Z" fill="#F9F3F1"/>
<path d="M92.2949 121C92.2949 132.046 85.8031 149 77.7949 149C69.7868 149 63.2949 132.046 63.2949 121C63.2949 109.954 69.7868 109 77.7949 109C85.8031 109 92.2949 109.954 92.2949 121Z" fill="#F9F3F1"/>
<path d="M74.2949 127C74.2949 100.49 95.7853 79 122.295 79H134.295C160.805 79 182.295 100.49 182.295 127V130.306C182.295 156.101 166.437 179.241 142.381 188.55C133.318 192.057 123.272 192.057 114.209 188.55C90.1531 179.241 74.2949 156.101 74.2949 130.306V127Z" fill="white"/>
<path d="M145.6 160.921C146.66 159.648 146.488 157.756 145.215 156.695C143.943 155.635 142.051 155.807 140.99 157.079L145.6 160.921ZM115.6 157.079C114.539 155.807 112.647 155.635 111.374 156.695C110.102 157.756 109.93 159.648 110.99 160.921L115.6 157.079ZM128.295 168C133.923 168 138.201 166.305 141.088 164.572C142.526 163.71 143.617 162.84 144.364 162.167C144.738 161.831 145.028 161.542 145.233 161.327C145.336 161.219 145.418 161.129 145.479 161.06C145.509 161.026 145.534 160.997 145.555 160.974C145.565 160.962 145.573 160.952 145.581 160.943C145.585 160.938 145.588 160.934 145.591 160.931C145.593 160.929 145.594 160.927 145.596 160.925C145.596 160.924 145.597 160.923 145.598 160.923C145.599 160.922 145.6 160.921 143.295 159C140.99 157.079 140.991 157.078 140.992 157.077C140.992 157.077 140.993 157.076 140.994 157.075C140.995 157.074 140.996 157.073 140.997 157.072C140.999 157.069 141 157.068 141.002 157.066C141.004 157.063 141.006 157.061 141.006 157.061C141.007 157.06 141.003 157.065 140.994 157.074C140.977 157.094 140.942 157.133 140.888 157.189C140.781 157.301 140.602 157.482 140.351 157.708C139.847 158.16 139.063 158.79 138.001 159.428C135.889 160.695 132.666 162 128.295 162V168ZM128.295 162C123.923 162 120.701 160.695 118.588 159.428C117.526 158.79 116.742 158.16 116.239 157.708C115.988 157.482 115.809 157.301 115.702 157.189C115.648 157.133 115.613 157.094 115.596 157.074C115.587 157.065 115.583 157.06 115.584 157.061C115.584 157.061 115.586 157.063 115.588 157.066C115.59 157.068 115.591 157.069 115.593 157.072C115.594 157.073 115.595 157.074 115.596 157.075C115.597 157.076 115.598 157.077 115.598 157.077C115.599 157.078 115.6 157.079 113.295 159C110.99 160.921 110.991 160.922 110.992 160.923C110.993 160.923 110.993 160.924 110.994 160.925C110.996 160.927 110.997 160.929 110.999 160.931C111.002 160.934 111.005 160.938 111.009 160.943C111.016 160.952 111.025 160.962 111.035 160.974C111.055 160.997 111.081 161.026 111.111 161.06C111.172 161.129 111.254 161.219 111.357 161.327C111.562 161.542 111.852 161.831 112.226 162.167C112.972 162.84 114.063 163.71 115.501 164.572C118.389 166.305 122.666 168 128.295 168V162Z" fill="#C0A8A1"/>
<path d="M128.295 130V146.5" stroke="#C0A8A1" stroke-width="6" stroke-linecap="round" stroke-linejoin="round"/>
<circle cx="150.295" cy="122" r="6" fill="#C0A8A1"/>
<circle cx="106.295" cy="122" r="6" fill="#C0A8A1"/>
<circle cx="128.295" cy="128" r="122" stroke="white" stroke-width="12"/>
<path d="M196 109C196 89.1178 179.882 73 160 73H128C128 92.8822 144.118 109 164 109H196Z" fill="#C0A8A1"/>
<path d="M60 109C60 89.1178 76.1178 73 96 73H128C128 92.8822 111.882 109 92 109H60Z" fill="#C0A8A1"/>
</g>
</svg>
