<svg width="36" height="39" viewBox="0 0 36 39" fill="none" xmlns="http://www.w3.org/2000/svg">
<path fill-rule="evenodd" clip-rule="evenodd" d="M31.6571 7.40716L27.9379 5.34935C27.8981 5.32734 27.6114 5.16991 27.0776 4.87707C25.9506 4.25874 24.582 4.26335 23.4592 4.88928L23.1584 5.05705C23.0384 5.12412 22.7191 5.30491 22.2007 5.59942C22.1447 5.63127 22.0979 5.67707 22.0651 5.73232C21.9605 5.90812 22.0192 6.13484 22.1961 6.23871C22.7007 6.53499 23.033 6.72753 23.1931 6.81633C24.3623 7.46492 26.5216 8.66429 29.6711 10.4144C31.0825 11.1987 31.9568 12.68 31.9568 14.2868V24.2073C31.9568 25.8054 31.092 27.28 29.6928 28.0676L21.8123 32.5041C21.6983 32.5683 21.5588 32.5682 21.4449 32.5038L19.2449 31.2598C19.2336 31.2534 19.2221 31.2477 19.2102 31.2425C17.9823 30.7075 16.8648 30.7102 15.858 31.2504C14.6956 31.874 14.0078 33.2303 14.0951 34.4825C14.1541 35.3287 14.507 36.0564 15.1539 36.6656C15.218 36.726 15.5889 36.9605 16.2666 37.3691C17.66 38.2092 19.4033 38.228 20.8147 37.4181L31.7633 31.1358C34.1804 29.7488 35.6694 27.1857 35.6694 24.4119V14.1908C35.6694 11.3737 34.1339 8.77755 31.6571 7.40716ZM20.1543 2.5123L20.5243 2.29915C20.5815 2.26619 20.6289 2.21867 20.6614 2.16149C20.7627 1.98381 20.6998 1.7582 20.521 1.65758C20.3271 1.54847 20.2118 1.48459 20.1751 1.46595L19.0633 0.902115C17.9463 0.335596 16.6172 0.366452 15.5281 0.984193L4.26985 7.36937C1.8335 8.75117 0.32959 11.3249 0.32959 14.1127V24.3943C0.32959 27.1683 1.81882 29.7315 4.23626 31.1184L8.32847 33.4662C8.38503 33.4986 8.44918 33.5157 8.51448 33.5157C8.71995 33.5157 8.88652 33.3502 8.88652 33.146V31.6338C8.88652 30.3058 8.15973 29.083 6.98947 28.442L6.43337 28.1374L6.36501 28.1001C4.93724 27.3207 4.04999 25.8304 4.04999 24.2115V14.2968C4.04999 12.7103 4.90248 11.2445 6.28581 10.4525L20.1543 2.5123ZM13.537 14.9304C13.537 13.7563 12.5793 12.8045 11.3978 12.8045C10.2163 12.8045 9.25856 13.7563 9.25856 14.9304V19.552C9.25856 20.7261 10.2163 21.6779 11.3978 21.6779C12.5793 21.6779 13.537 20.7261 13.537 19.552V14.9304ZM26.1157 13.4211C26.943 14.2288 26.9548 15.55 26.1421 16.3722L26.1157 16.3984L25.2538 17.2398L26.1157 18.0812C26.943 18.8889 26.9548 20.2101 26.1421 21.0323L26.1157 21.0585C25.2692 21.8849 23.9125 21.8849 23.066 21.0585L20.6793 18.7284C19.852 17.9208 19.8402 16.5995 20.653 15.7774C20.6617 15.7686 20.6705 15.7598 20.6793 15.7512L23.066 13.4211C23.9125 12.5947 25.2692 12.5947 26.1157 13.4211Z" fill="url(#paint0_linear)"/>
<defs>
<linearGradient id="paint0_linear" x1="17.9091" y1="-6.25785" x2="-9.45093" y2="17.9727" gradientUnits="userSpaceOnUse">
<stop stop-color="#00D8FF"/>
<stop offset="1" stop-color="#048FFA"/>
</linearGradient>
</defs>
</svg>
