<svg width="257" height="257" viewBox="0 0 257 257" fill="none" xmlns="http://www.w3.org/2000/svg">
<mask id="mask0" mask-type="alpha" maskUnits="userSpaceOnUse" x="1" y="0" width="256" height="256">
<circle cx="129" cy="128" r="122" fill="#D8E2E8" stroke="white" stroke-width="12"/>
</mask>
<g mask="url(#mask0)">
<circle cx="129" cy="128" r="128" fill="#D8E2E8"/>
<path d="M43 245C43 200.817 78.8172 165 123 165H135C179.183 165 215 200.817 215 245V249H43V245Z" fill="#A1B5C0"/>
<path d="M194 121C194 132.046 187.508 149 179.5 149C171.492 149 165 132.046 165 121C165 109.954 171.492 109 179.5 109C187.508 109 194 109.954 194 121Z" fill="#F1F6F9"/>
<path d="M93 121C93 132.046 86.5081 149 78.5 149C70.4919 149 64 132.046 64 121C64 109.954 70.4919 109 78.5 109C86.5081 109 93 109.954 93 121Z" fill="#F1F6F9"/>
<path d="M75 79H183V130.306C183 156.101 167.142 179.241 143.086 188.55C134.023 192.057 123.977 192.057 114.914 188.55C90.8582 179.241 75 156.101 75 130.306V79Z" fill="white"/>
<path d="M146.305 160.921C147.365 159.648 147.193 157.756 145.921 156.695C144.648 155.635 142.756 155.807 141.695 157.079L146.305 160.921ZM116.305 157.079C115.244 155.807 113.352 155.635 112.079 156.695C110.807 157.756 110.635 159.648 111.695 160.921L116.305 157.079ZM129 168C134.629 168 138.906 166.305 141.793 164.572C143.231 163.71 144.323 162.84 145.069 162.167C145.443 161.831 145.733 161.542 145.938 161.327C146.041 161.219 146.123 161.129 146.184 161.06C146.214 161.026 146.24 160.997 146.26 160.974C146.27 160.962 146.279 160.952 146.286 160.943C146.29 160.938 146.293 160.934 146.296 160.931C146.298 160.929 146.299 160.927 146.301 160.925C146.301 160.924 146.302 160.923 146.303 160.923C146.304 160.922 146.305 160.921 144 159C141.695 157.079 141.696 157.078 141.697 157.077C141.697 157.077 141.698 157.076 141.699 157.075C141.7 157.074 141.701 157.073 141.702 157.072C141.704 157.069 141.705 157.068 141.707 157.066C141.709 157.063 141.711 157.061 141.711 157.061C141.712 157.06 141.708 157.065 141.699 157.074C141.682 157.094 141.647 157.133 141.593 157.189C141.486 157.301 141.307 157.482 141.056 157.708C140.552 158.16 139.769 158.79 138.707 159.428C136.594 160.695 133.371 162 129 162V168ZM129 162C124.629 162 121.406 160.695 119.293 159.428C118.231 158.79 117.448 158.16 116.944 157.708C116.693 157.482 116.514 157.301 116.407 157.189C116.353 157.133 116.318 157.094 116.301 157.074C116.292 157.065 116.288 157.06 116.289 157.061C116.289 157.061 116.291 157.063 116.293 157.066C116.295 157.068 116.296 157.069 116.298 157.072C116.299 157.073 116.3 157.074 116.301 157.075C116.302 157.076 116.303 157.077 116.303 157.077C116.304 157.078 116.305 157.079 114 159C111.695 160.921 111.696 160.922 111.697 160.923C111.698 160.923 111.699 160.924 111.699 160.925C111.701 160.927 111.702 160.929 111.704 160.931C111.707 160.934 111.71 160.938 111.714 160.943C111.721 160.952 111.73 160.962 111.74 160.974C111.76 160.997 111.786 161.026 111.816 161.06C111.877 161.129 111.959 161.219 112.062 161.327C112.267 161.542 112.557 161.831 112.931 162.167C113.677 162.84 114.769 163.71 116.207 164.572C119.094 166.305 123.371 168 129 168V162Z" fill="#A1B5C0"/>
<path d="M70 79C70 61.3269 84.3269 47 102 47H194C198.418 47 202 50.5817 202 55V67C202 84.6731 187.673 99 170 99H76C72.6863 99 70 96.3137 70 93V79Z" fill="#A1B5C0"/>
<path d="M129 130V146.5" stroke="#A1B5C0" stroke-width="6" stroke-linecap="round" stroke-linejoin="round"/>
<circle cx="151" cy="122" r="6" fill="#A1B5C0"/>
<circle cx="107" cy="122" r="6" fill="#A1B5C0"/>
<circle cx="129" cy="128" r="122" stroke="white" stroke-width="12"/>
</g>
</svg>
