<svg width="48" height="48" viewBox="0 0 48 48" fill="none" xmlns="http://www.w3.org/2000/svg">
<path fill-rule="evenodd" clip-rule="evenodd" d="M8 6C8 2.68629 10.6863 0 14 0L34 0C37.3137 0 40 2.68629 40 6L40 42C40 45.3137 37.3137 48 34 48H14C10.6863 48 8 45.3137 8 42L8 6ZM12 8C12 6.34315 13.3431 5 15 5L33 5C34.6569 5 36 6.34315 36 8V34C36 35.6569 34.6569 37 33 37H15C13.3431 37 12 35.6569 12 34L12 8ZM24 45C25.6569 45 27 43.6569 27 42C27 40.3431 25.6569 39 24 39C22.3431 39 21 40.3431 21 42C21 43.6569 22.3431 45 24 45Z" fill="#59687A"/>
</svg>
