<svg width="12" height="16" viewBox="0 0 12 16" fill="none" xmlns="http://www.w3.org/2000/svg">
<path fill-rule="evenodd" clip-rule="evenodd" d="M0 2C0 0.895431 0.895431 0 2 0L10 0C11.1046 0 12 0.895431 12 2L12 14C12 15.1046 11.1046 16 10 16L2 16C0.895431 16 0 15.1046 0 14L0 2ZM2 3C2 2.44772 2.44772 2 3 2L9 2C9.55229 2 10 2.44772 10 3L10 11C10 11.5523 9.55229 12 9 12L3 12C2.44772 12 2 11.5523 2 11L2 3ZM6 15C6.55228 15 7 14.5523 7 14C7 13.4477 6.55228 13 6 13C5.44772 13 5 13.4477 5 14C5 14.5523 5.44772 15 6 15Z" fill="#EFF5FC"/>
</svg>
