<svg width="14" height="16" viewBox="0 0 14 16" fill="none" xmlns="http://www.w3.org/2000/svg">
<path fill-rule="evenodd" clip-rule="evenodd" d="M8.25 2C8.25 1.30964 7.69036 0.75 7 0.75C6.30965 0.75 5.75 1.30964 5.75 2V6C5.75 6.69036 6.30965 7.25 7 7.25C7.69036 7.25 8.25 6.69036 8.25 6V2ZM11.9497 4.05025C11.4616 3.5621 10.6701 3.5621 10.182 4.05025C9.69383 4.53841 9.69383 5.32986 10.182 5.81802C10.8113 6.44736 11.2399 7.24918 11.4135 8.12209C11.5872 8.99501 11.4981 9.89981 11.1575 10.7221C10.8169 11.5443 10.2401 12.2471 9.50007 12.7416C8.76005 13.2361 7.89002 13.5 7 13.5C6.10999 13.5 5.23996 13.2361 4.49994 12.7416C3.75992 12.2471 3.18314 11.5443 2.84255 10.7221C2.50195 9.89981 2.41284 8.99501 2.58647 8.12209C2.7601 7.24918 3.18869 6.44736 3.81802 5.81802C4.30618 5.32986 4.30618 4.53841 3.81802 4.05025C3.32987 3.5621 2.53841 3.5621 2.05026 4.05025C1.07129 5.02922 0.404603 6.2765 0.134506 7.63437C-0.13559 8.99224 0.00303309 10.3997 0.532847 11.6788C1.06266 12.9579 1.95987 14.0511 3.11101 14.8203C4.26216 15.5895 5.61553 16 7 16C8.38447 16 9.73785 15.5895 10.889 14.8203C12.0401 14.0511 12.9373 12.9579 13.4672 11.6788C13.997 10.3997 14.1356 8.99223 13.8655 7.63437C13.5954 6.2765 12.9287 5.02922 11.9497 4.05025Z" fill="#717D8B"/>
</svg>
