<svg width="14" height="16" viewBox="0 0 14 16" fill="none" xmlns="http://www.w3.org/2000/svg">
<path fill-rule="evenodd" clip-rule="evenodd" d="M10.4119 0.834337C10.8902 0.558194 11.5018 0.72207 11.7779 1.20036C12.9716 3.26782 13.6 5.61306 13.6 8.00036C13.6 10.3877 12.9716 12.7329 11.7779 14.8004C11.5018 15.2787 10.8902 15.4425 10.4119 15.1664C9.93363 14.8902 9.76975 14.2787 10.0459 13.8004C11.064 12.0369 11.6 10.0366 11.6 8.00036C11.6 5.96414 11.064 3.96379 10.0459 2.20036C9.76975 1.72207 9.93363 1.11048 10.4119 0.834337ZM5.56218 3.63434C6.04047 3.35819 6.65206 3.52207 6.9282 4.00036C7.63035 5.21652 8 6.59607 8 8.00036C8 9.40466 7.63035 10.7842 6.9282 12.0004C6.65206 12.4787 6.04047 12.6425 5.56218 12.3664C5.08389 12.0902 4.92001 11.4787 5.19615 11.0004C5.72276 10.0882 6 9.05358 6 8.00036C6 6.94714 5.72276 5.91248 5.19615 5.00036C4.92001 4.52207 5.08389 3.91048 5.56218 3.63434ZM1.4 9.40036C2.1732 9.40036 2.8 8.77356 2.8 8.00036C2.8 7.22716 2.1732 6.60036 1.4 6.60036C0.626801 6.60036 0 7.22716 0 8.00036C0 8.77356 0.626801 9.40036 1.4 9.40036Z" fill="#59687A"/>
</svg>
