<svg width="10" height="12" viewBox="0 0 10 12" fill="none" xmlns="http://www.w3.org/2000/svg">
<path fill-rule="evenodd" clip-rule="evenodd" d="M7.29423 0.634142C7.77252 0.357999 8.38411 0.521874 8.66025 1.00017C9.53794 2.52036 10 4.2448 10 6.00017C10 7.75553 9.53794 9.47997 8.66025 11.0002C8.38411 11.4785 7.77252 11.6423 7.29423 11.3662C6.81594 11.09 6.65206 10.4785 6.9282 10.0002C7.63035 8.78401 8 7.40446 8 6.00017C8 4.59587 7.63035 3.21632 6.9282 2.00017C6.65206 1.52187 6.81594 0.910284 7.29423 0.634142ZM3.83013 2.63414C4.30842 2.358 4.92001 2.52187 5.19615 3.00017C5.72276 3.91228 6 4.94695 6 6.00017C6 7.05339 5.72276 8.08805 5.19615 9.00017C4.92001 9.47846 4.30842 9.64233 3.83013 9.36619C3.35183 9.09005 3.18796 8.47846 3.4641 8.00017C3.81518 7.39209 4 6.70231 4 6.00017C4 5.29802 3.81518 4.60824 3.4641 4.00017C3.18796 3.52187 3.35183 2.91028 3.83013 2.63414ZM1 7.00017C1.55228 7.00017 2 6.55245 2 6.00017C2 5.44788 1.55228 5.00017 1 5.00017C0.447715 5.00017 0 5.44788 0 6.00017C0 6.55245 0.447715 7.00017 1 7.00017Z" fill="white"/>
</svg>
