<svg width="11" height="16" viewBox="0 0 11 16" fill="none" xmlns="http://www.w3.org/2000/svg">
<path fill-rule="evenodd" clip-rule="evenodd" d="M7.8322 14.5268C11.6655 10.6606 11.6564 4.39709 7.80292 0.543655C7.80004 0.540774 7.7969 0.538482 7.79376 0.536198C7.7909 0.534105 7.78804 0.532019 7.7854 0.529495L7.78684 0.528055L7.3798 0.120535L7.375 0.125335C7.2668 0.0386921 7.13078 -0.00564921 6.99231 0.000576883C6.85383 0.00680298 6.72235 0.0631713 6.62236 0.159175L6.62164 0.158455L6.6154 0.164695L6.61348 0.166375L6.61204 0.168295L5.94652 0.833575L5.94604 0.834055L5.9459 0.834394L5.94556 0.834535L5.89756 0.882535L5.90236 0.887335C5.82286 0.988373 5.77984 1.11331 5.78028 1.24187C5.78071 1.37043 5.82458 1.49508 5.90476 1.59557L5.9002 1.60013L5.9458 1.64573V1.64597H5.94604L6.30748 2.00717L6.31396 2.00069C6.31647 2.00332 6.31861 2.00617 6.32075 2.00903C6.3231 2.01217 6.32547 2.01532 6.32836 2.01821C9.36844 5.05853 9.37804 9.99917 6.35764 13.052L6.35356 13.0479L5.9926 13.4089L5.99188 13.4093L5.9914 13.4101L5.94628 13.4552L5.95084 13.4597C5.86419 13.5679 5.81985 13.7039 5.82608 13.8424C5.83231 13.9809 5.88867 14.1124 5.98468 14.2124L5.98396 14.2131L5.9914 14.2205L5.99188 14.2213L5.9926 14.2217L6.32764 14.5568L6.32812 14.5575L6.32884 14.558L6.65908 14.8882L6.65956 14.8889L6.66028 14.8894L6.7078 14.9369L6.7126 14.9321C6.81365 15.0117 6.93861 15.0548 7.06721 15.0544C7.19582 15.054 7.32052 15.0101 7.42108 14.93L7.42564 14.9345L7.80172 14.5582L7.80292 14.5573L7.80724 14.5527L7.83292 14.527L7.8322 14.5268ZM0.427881 6.49483C0.292271 6.63036 0.184687 6.79128 0.111271 6.9684C0.0378543 7.14552 4.46913e-05 7.33536 3.93149e-08 7.52709C-4.44539e-05 7.71882 0.0376767 7.90868 0.111011 8.08583C0.184344 8.26298 0.291854 8.42395 0.427401 8.55955C0.56295 8.69528 0.723923 8.80296 0.901116 8.87644C1.07831 8.94991 1.26825 8.98775 1.46007 8.98777C1.65189 8.98779 1.84184 8.95 2.01905 8.87657C2.19626 8.80313 2.35726 8.69549 2.49284 8.55979C2.62865 8.42425 2.73639 8.26326 2.80991 8.08603C2.88342 7.9088 2.92126 7.71882 2.92126 7.52695C2.92126 7.33508 2.88342 7.14509 2.80991 6.96786C2.73639 6.79063 2.62865 6.62964 2.49284 6.49411C2.35727 6.35845 2.19629 6.25086 2.0191 6.17747C1.84191 6.10408 1.652 6.06634 1.46021 6.06641C1.26843 6.06647 1.07854 6.10435 0.901402 6.17786C0.724266 6.25137 0.563358 6.35908 0.427881 6.49483ZM5.01251 3.33499C7.32755 5.64979 7.33667 9.40963 5.04203 11.7374L5.04251 11.7381L5.01251 11.7681L4.63523 12.1454L4.63043 12.1406C4.52987 12.2207 4.40523 12.2644 4.27669 12.2648C4.14815 12.2652 4.02324 12.2222 3.92219 12.1428L3.91739 12.1476L3.86915 12.0993L3.19331 11.4237L3.19427 11.4228C3.09833 11.3228 3.042 11.1913 3.03578 11.0529C3.02955 10.9145 3.07385 10.7785 3.16043 10.6704L3.15587 10.6658L3.20123 10.6204L3.20147 10.62L3.20195 10.6197L3.56315 10.2585L3.56627 10.2616C5.04803 8.74723 5.03963 6.31123 3.53771 4.80955C3.53482 4.80666 3.53245 4.80351 3.5301 4.80036C3.52796 4.79751 3.52583 4.79466 3.52331 4.79203L3.51683 4.79851L3.15587 4.43731L3.15539 4.43683L3.15491 4.43635L3.10955 4.39099L3.11411 4.38643C3.03397 4.28591 2.99014 4.16125 2.98975 4.03269C2.98936 3.90413 3.03242 3.7792 3.11195 3.67819L3.10715 3.67339L3.15467 3.62587L3.15539 3.62491L3.15635 3.62419L3.82211 2.95843L3.82307 2.95723L3.82427 2.95627L3.83123 2.94931L3.83195 2.95003C3.93199 2.85412 4.06346 2.79782 4.20191 2.79159C4.34035 2.78537 4.47635 2.82965 4.58459 2.91619L4.58939 2.91139L4.99667 3.31891L4.99499 3.32059C4.99775 3.32335 5.00075 3.32557 5.00375 3.32779C5.00675 3.33001 5.00975 3.33223 5.01251 3.33499Z" fill="#141B24"/>
</svg>
