<svg width="24" height="24" viewBox="0 0 24 24" fill="none" xmlns="http://www.w3.org/2000/svg">
<circle cx="12" cy="12" r="12" fill="#59687A"/>
<path d="M14.1145 12.6846C14.4622 12.3369 14.7187 11.9089 14.8615 11.4384C15.0042 10.9679 15.0287 10.4695 14.9328 9.98727C14.8368 9.50506 14.6235 9.05394 14.3116 8.67388C13.9997 8.29381 13.5988 7.99654 13.1446 7.80839C12.6904 7.62024 12.1967 7.54702 11.7074 7.59521C11.2181 7.6434 10.7483 7.81152 10.3395 8.08467C9.93066 8.35782 9.59553 8.72758 9.36377 9.16119C9.132 9.5948 9.01074 10.0789 9.01074 10.5705" stroke="white" stroke-width="2" stroke-linecap="round" stroke-linejoin="round"/>
<path d="M14.0275 12.7722C12.001 14.4988 12.001 15.4988 12.001 15.4988" stroke="white" stroke-width="2" stroke-linecap="round" stroke-linejoin="round"/>
<circle cx="12" cy="18" r="1" fill="white"/>
</svg>
