<?xml version="1.0" encoding="UTF-8"?>
<svg width="36px" height="36px" viewBox="0 0 36 36" version="1.1" xmlns="http://www.w3.org/2000/svg" xmlns:xlink="http://www.w3.org/1999/xlink">
    <!-- Generator: Sketch 55.2 (78181) - https://sketchapp.com -->
    <title>icon-横版蓝备份 3</title>
    <desc>Created with Sketch.</desc>
    <defs>
        <linearGradient x1="71.5208649%" y1="14.7814621%" x2="9.42470001%" y2="93.8993236%" id="linearGradient-1">
            <stop stop-color="#00FFF1" offset="0%"></stop>
            <stop stop-color="#0089F9" offset="100%"></stop>
        </linearGradient>
        <linearGradient x1="96.1122423%" y1="8.18472507%" x2="14.053176%" y2="100%" id="linearGradient-2">
            <stop stop-color="#00FFFE" offset="0%"></stop>
            <stop stop-color="#0089F9" offset="100%"></stop>
        </linearGradient>
        <path d="M9.26213592,0 L26.7378641,0 C31.8532005,0 36,4.1467995 36,9.26213592 L36,26.7378641 C36,31.8532005 31.8532005,36 26.7378641,36 L9.26213592,36 C4.1467995,36 0,31.8532005 0,26.7378641 L0,9.26213592 C0,4.1467995 4.1467995,0 9.26213592,0 Z" id="path-3"></path>
    </defs>
    <g id="个人&amp;VIP" stroke="none" stroke-width="1" fill="none" fill-rule="evenodd">
        <g id="查看帮助" transform="translate(-37.000000, -99.000000)">
            <g id="icon-横版蓝备份-3" transform="translate(37.000000, 99.000000)">
                <g id="联系客服_头像">
                    <g id="矩形备份-18">
                        <use fill="url(#linearGradient-1)" xlink:href="#path-3"></use>
                        <use fill="url(#linearGradient-2)" xlink:href="#path-3"></use>
                    </g>
                    <g id="圆角-不可调节备份-3" transform="translate(6.640777, 5.941748)" fill="#FFFFFF">
                        <path d="M17.7481993,3.28202873 L20.1391083,4.60490605 C21.7313276,5.48587258 22.7184466,7.15480693 22.7184466,8.96582542 L22.7184466,15.5365398 C22.7184466,17.3196745 21.7612335,18.9673707 20.207354,19.8590022 L13.1690271,23.8976643 C12.2616933,24.4183016 11.1409721,24.4062204 10.2452164,23.8661462 C9.80957854,23.6034889 9.57114941,23.4527498 9.52992898,23.4139289 C9.11407524,23.0222831 8.88718188,22.5544701 8.84924891,22.0104901 C8.79311501,21.2054986 9.23531882,20.3335742 9.98252091,19.9326865 C10.6297946,19.5854122 11.3481434,19.583725 12.1375672,19.9276249 C12.1451739,19.9309418 12.1526029,19.9346477 12.1598228,19.9387302 L13.5741452,20.7384594 C13.6473381,20.7798464 13.7370396,20.7799306 13.8103111,20.7386809 L18.8763634,17.886646 C19.7758153,17.3802816 20.3317503,16.4323428 20.3317503,15.4050289 L20.3317503,9.02755962 C20.3317503,7.99456127 19.7697002,7.04230187 18.8624315,6.53815015 C16.8377271,5.41306105 15.4495682,4.64204006 14.6979548,4.22508719 C14.5950468,4.1679996 14.3814106,4.04422475 14.0570463,3.85376264 C13.9433247,3.7869872 13.9056067,3.64123945 13.9728008,3.52822613 C13.9939183,3.49270881 14.0239746,3.46326533 14.0600138,3.44279127 C14.3932783,3.25346237 14.5984903,3.13723881 14.6756499,3.09412061 C14.6899187,3.08614694 14.754388,3.0501967 14.8690579,2.98626989 C15.5908338,2.58389027 16.4706406,2.58092164 17.1951494,2.97842124 C17.5382754,3.16667634 17.7226254,3.26787883 17.7481993,3.28202873 Z M12.9823251,1.32118972 C12.8403072,1.40301701 12.7610237,1.44869013 12.7444747,1.4582091 L3.8289961,6.5626149 C2.93971432,7.07175808 2.39168889,8.01405073 2.39168889,9.03396742 L2.39168889,15.4077039 C2.39168882,16.4483938 2.96206405,17.4064739 3.87991096,17.907525 C3.90778857,17.9227434 3.92243685,17.9307399 3.92385582,17.9315147 C3.93987854,17.9402633 4.05904439,18.0055236 4.28135337,18.1272955 C5.03365959,18.5393775 5.50088446,19.3254812 5.50088446,20.1791493 L5.50088446,21.1512789 C5.50088446,21.2825457 5.3938049,21.3889584 5.26171557,21.3889584 C5.21973565,21.3889584 5.1784952,21.3779777 5.14213875,21.3571198 L2.51143361,19.8478683 C0.957361944,18.9562879 0,17.3084847 0,15.5252102 L0,8.91558908 C0,7.12347329 0.966797263,5.46891275 2.53302337,4.58061558 L9.77044242,0.475857748 C10.4706339,0.0787387767 11.32503,0.0589022502 12.043119,0.423092981 L12.7578061,0.78555837 C12.7814343,0.797541808 12.8555712,0.838606192 12.9802168,0.908751522 C13.0951547,0.973435603 13.1355666,1.11846729 13.0704786,1.23269024 C13.0495308,1.26945149 13.0191019,1.29999983 12.9823251,1.32118972 Z M7.11527446,8.07462285 C7.87478811,8.07462285 8.49049557,8.68649609 8.49049557,9.44127997 L8.49049557,12.4122737 C8.49049557,13.1670576 7.87478811,13.7789308 7.11527446,13.7789308 C6.35576081,13.7789308 5.74005334,13.1670576 5.74005334,12.4122737 L5.74005334,9.44127997 C5.74005334,8.68649609 6.35576081,8.07462285 7.11527446,8.07462285 Z M16.5767703,8.47101118 C17.1086115,8.99023316 17.1162038,9.83960335 16.5937282,10.3681326 L16.5767703,10.3849849 L16.0227092,10.9258905 L16.5767703,11.4667961 C17.1086115,11.9860181 17.1162038,12.8353883 16.5937282,13.3639175 L16.5767703,13.3807698 C16.0326014,13.912027 15.1604481,13.912027 14.6162792,13.3807698 L13.0819818,11.8828773 C12.5501406,11.3636554 12.5425482,10.5142852 13.0650239,9.98575593 C13.0706262,9.98008871 13.076279,9.97447106 13.0819818,9.96890364 L14.6162792,8.47101118 C15.1604481,7.939754 16.0326014,7.939754 16.5767703,8.47101118 Z" id="形状结合"></path>
                    </g>
                </g>
            </g>
        </g>
    </g>
</svg>