<svg width="26" height="25" viewBox="0 0 26 25" fill="none" xmlns="http://www.w3.org/2000/svg">
<path fill-rule="evenodd" clip-rule="evenodd" d="M22.3128 4.44157L19.777 3.11869C19.7499 3.10454 19.5544 3.00334 19.1905 2.81509C18.422 2.41759 17.4889 2.42056 16.7234 2.82293L16.5183 2.93079C16.4364 2.9739 16.2188 3.09013 15.8653 3.27946C15.8271 3.29993 15.7952 3.32937 15.7728 3.36489C15.7016 3.4779 15.7416 3.62365 15.8622 3.69043C16.2062 3.88089 16.4328 4.00466 16.5419 4.06175C17.3391 4.4787 18.8114 5.24973 20.9588 6.37482C21.921 6.87897 22.5172 7.83123 22.5172 8.86423V15.2417C22.5172 16.269 21.9275 17.2169 20.9736 17.7233L15.6005 20.5753C15.5228 20.6166 15.4276 20.6165 15.35 20.5751L13.85 19.7754C13.8423 19.7713 13.8344 19.7676 13.8264 19.7643C12.9891 19.4204 12.2272 19.4221 11.5407 19.7694C10.7482 20.1702 10.2792 21.0422 10.3388 21.8472C10.379 22.3911 10.6196 22.8589 11.0607 23.2506C11.1044 23.2894 11.3573 23.4402 11.8193 23.7028C12.7694 24.2429 13.958 24.255 14.9203 23.7343L22.3852 19.6957C24.0333 18.804 25.0485 17.1563 25.0485 15.3732V8.80249C25.0485 6.99147 24.0016 5.32254 22.3128 4.44157ZM14.4701 1.29487L14.7223 1.15785C14.7613 1.13666 14.7936 1.10612 14.8158 1.06936C14.8848 0.955132 14.842 0.8101 14.7201 0.745416C14.5879 0.675271 14.5093 0.634207 14.4842 0.622223L13.7262 0.259758C12.9646 -0.104433 12.0584 -0.0845965 11.3158 0.312523L3.63973 4.41728C1.97858 5.30558 0.953186 6.96014 0.953186 8.75225V15.3619C0.953186 17.1452 1.96857 18.793 3.61683 19.6845L6.40697 21.1938C6.44553 21.2146 6.48927 21.2256 6.53379 21.2256C6.67389 21.2256 6.78746 21.1192 6.78746 20.9879V20.0158C6.78746 19.1621 6.29192 18.376 5.49402 17.964L5.11485 17.7682L5.06824 17.7442C4.09477 17.2431 3.48983 16.2851 3.48983 15.2444V8.87063C3.48983 7.85072 4.07106 6.90842 5.01424 6.39928L14.4701 1.29487ZM9.95826 9.27795C9.95826 8.52316 9.30523 7.91129 8.49969 7.91129C7.69414 7.91129 7.04112 8.52316 7.04112 9.27795V12.2489C7.04112 13.0037 7.69414 13.6156 8.49969 13.6156C9.30523 13.6156 9.95826 13.0037 9.95826 12.2489V9.27795ZM18.5346 8.30768C19.0987 8.8269 19.1067 9.67627 18.5526 10.2048L18.5346 10.2217L17.947 10.7626L18.5346 11.3035C19.0987 11.8227 19.1067 12.6721 18.5526 13.2006L18.5346 13.2174C17.9575 13.7487 17.0324 13.7487 16.4553 13.2174L14.828 11.7195C14.2639 11.2003 14.2559 10.351 14.81 9.82242C14.816 9.81675 14.822 9.81114 14.828 9.80557L16.4553 8.30768C17.0324 7.77642 17.9575 7.77642 18.5346 8.30768Z" fill="#02AEFC"/>
</svg>
